<?xml version="1.0" encoding="UTF-8" standalone="no"?>
<svg
   xmlns:dc="http://purl.org/dc/elements/1.1/"
   xmlns:cc="http://creativecommons.org/ns#"
   xmlns:rdf="http://www.w3.org/1999/02/22-rdf-syntax-ns#"
   xmlns:svg="http://www.w3.org/2000/svg"
   xmlns="http://www.w3.org/2000/svg"
   xmlns:sodipodi="http://sodipodi.sourceforge.net/DTD/sodipodi-0.dtd"
   xmlns:inkscape="http://www.inkscape.org/namespaces/inkscape"
   inkscape:version="1.0 (4035a4fb49, 2020-05-01)"
   sodipodi:docname="Aperture_Science.svg"
   xml:space="preserve"
   enable-background="new 0 0 530.973 530.973"
   viewBox="0 0 530.973 530.973"
   height="530.973px"
   width="530.973px"
   y="0px"
   x="0px"
   id="Calque_1"
   version="1.1"><metadata
   id="metadata9"><rdf:RDF><cc:Work
       rdf:about=""><dc:format>image/svg+xml</dc:format><dc:type
         rdf:resource="http://purl.org/dc/dcmitype/StillImage" /><dc:title></dc:title></cc:Work></rdf:RDF></metadata><defs
   id="defs7"><filter
     height="1.0341897"
     y="-0.017094844"
     width="1.0341891"
     x="-0.017094543"
     id="filter944"
     style="color-interpolation-filters:sRGB"
     inkscape:collect="always"><feGaussianBlur
       id="feGaussianBlur946"
       stdDeviation="3.6474598"
       inkscape:collect="always" /></filter></defs><sodipodi:namedview
   inkscape:current-layer="Calque_1"
   inkscape:window-maximized="1"
   inkscape:window-y="-8"
   inkscape:window-x="-8"
   inkscape:cy="279.65724"
   inkscape:cx="514.51254"
   inkscape:zoom="1.3842511"
   showgrid="false"
   id="namedview5"
   inkscape:window-height="1017"
   inkscape:window-width="1920"
   inkscape:pageshadow="2"
   inkscape:pageopacity="0"
   guidetolerance="10"
   gridtolerance="10"
   objecttolerance="10"
   borderopacity="1"
   bordercolor="#666666"
   pagecolor="#ffffff" />
<path
   style="fill:#000000;fill-opacity:1;filter:url(#filter944)"
   fill="#0099FF"
   d="M320.622,16.038c-48.13-10.56-96.075-6.789-139.409,8.433l205.646,142.285L363.887,29.585  C350.117,23.897,335.676,19.34,320.622,16.038z M381.61,37.721l41.565,244.095l79.798-112.224  C480.031,113.27,437.342,65.91,381.61,37.721z M164.624,30.954C107.809,55.459,60.469,100.197,33.57,158.183l248.56-46.176  L164.624,30.954z M508.526,184.605L367.76,388.57l135.075-25.795c5.425-13.334,9.788-27.293,12.978-41.823l1.161-5.589  C525.838,270.157,522.227,225.371,508.526,184.605z M165.219,149.9L26.793,174.226c-4.543,11.86-8.283,24.22-11.088,37.004  C5.067,259.717,8.992,308.02,24.5,351.609L165.219,149.9z M107.782,257.134L31.555,369.377  c24.248,54.834,67.436,100.631,123.173,127.418L107.782,257.134z M496.049,377.989l-242.225,46.989l111.375,76.992  C421.459,478.19,468.575,434.608,496.049,377.989z M146.782,370.741l23.439,132.869c12.988,5.211,26.556,9.434,40.676,12.53  c47.857,10.5,95.541,6.83,138.681-8.18L146.782,370.741z"
   id="path834" /><path
   style="fill:#3b3b3b;fill-opacity:1"
   id="path2"
   d="M320.622,16.038c-48.13-10.56-96.075-6.789-139.409,8.433l205.646,142.285L363.887,29.585  C350.117,23.897,335.676,19.34,320.622,16.038z M381.61,37.721l41.565,244.095l79.798-112.224  C480.031,113.27,437.342,65.91,381.61,37.721z M164.624,30.954C107.809,55.459,60.469,100.197,33.57,158.183l248.56-46.176  L164.624,30.954z M508.526,184.605L367.76,388.57l135.075-25.795c5.425-13.334,9.788-27.293,12.978-41.823l1.161-5.589  C525.838,270.157,522.227,225.371,508.526,184.605z M165.219,149.9L26.793,174.226c-4.543,11.86-8.283,24.22-11.088,37.004  C5.067,259.717,8.992,308.02,24.5,351.609L165.219,149.9z M107.782,257.134L31.555,369.377  c24.248,54.834,67.436,100.631,123.173,127.418L107.782,257.134z M496.049,377.989l-242.225,46.989l111.375,76.992  C421.459,478.19,468.575,434.608,496.049,377.989z M146.782,370.741l23.439,132.869c12.988,5.211,26.556,9.434,40.676,12.53  c47.857,10.5,95.541,6.83,138.681-8.18L146.782,370.741z"
   fill="#0099FF" />
</svg>
